<?xml version="1.0" encoding="UTF-8"?><svg xmlns="http://www.w3.org/2000/svg" xmlns:xlink="http://www.w3.org/1999/xlink" fill-opacity="1" color-rendering="auto" color-interpolation="auto" text-rendering="auto" stroke="black" stroke-linecap="square" width="415" stroke-miterlimit="10" shape-rendering="auto" stroke-opacity="1" fill="black" stroke-dasharray="none" font-weight="normal" stroke-width="1" height="180" font-family="'Dialog'" font-style="normal" stroke-linejoin="miter" font-size="12px" stroke-dashoffset="0" image-rendering="auto">
  <!--Generated by ySVG 2.5-->
  <defs id="genericDefs"/>
  <g>
    <defs id="defs1">
      <clipPath clipPathUnits="userSpaceOnUse" id="clipPath1">
        <path d="M0 0 L415 0 L415 180 L0 180 L0 0 Z"/>
      </clipPath>
      <clipPath clipPathUnits="userSpaceOnUse" id="clipPath2">
        <path d="M543 129 L958 129 L958 309 L543 309 L543 129 Z"/>
      </clipPath>
    </defs>
    <g fill="white" text-rendering="geometricPrecision" shape-rendering="geometricPrecision" transform="translate(-543,-129)" stroke="white">
      <rect x="543" width="415" height="180" y="129" clip-path="url(#clipPath2)" stroke="none"/>
    </g>
    <g fill="rgb(204,255,204)" text-rendering="geometricPrecision" shape-rendering="geometricPrecision" transform="matrix(1,0,0,1,-543,-129)" stroke="rgb(204,255,204)">
      <rect x="727" y="144" clip-path="url(#clipPath2)" width="47" rx="4" ry="4" height="30" stroke="none"/>
    </g>
    <g text-rendering="geometricPrecision" stroke-miterlimit="1.45" shape-rendering="geometricPrecision" transform="matrix(1,0,0,1,-543,-129)" stroke-linecap="butt">
      <rect x="727" y="144" clip-path="url(#clipPath2)" fill="none" width="47" rx="4" ry="4" height="30"/>
      <text x="742.1592" xml:space="preserve" y="163.7139" clip-path="url(#clipPath2)" font-family="sans-serif" stroke="none">5 9</text>
    </g>
    <g fill="rgb(204,255,204)" text-rendering="geometricPrecision" shape-rendering="geometricPrecision" transform="matrix(1,0,0,1,-543,-129)" stroke="rgb(204,255,204)">
      <rect x="588" y="204" clip-path="url(#clipPath2)" width="47" rx="4" ry="4" height="30" stroke="none"/>
    </g>
    <g text-rendering="geometricPrecision" stroke-miterlimit="1.45" shape-rendering="geometricPrecision" transform="matrix(1,0,0,1,-543,-129)" stroke-linecap="butt">
      <rect x="588" y="204" clip-path="url(#clipPath2)" fill="none" width="47" rx="4" ry="4" height="30"/>
      <text x="601.1611" xml:space="preserve" y="223.7139" clip-path="url(#clipPath2)" font-family="sans-serif" stroke="none">-8 2</text>
    </g>
    <g fill="rgb(204,255,204)" text-rendering="geometricPrecision" shape-rendering="geometricPrecision" transform="matrix(1,0,0,1,-543,-129)" stroke="rgb(204,255,204)">
      <rect x="727" y="204" clip-path="url(#clipPath2)" width="47" rx="4" ry="4" height="30" stroke="none"/>
    </g>
    <g text-rendering="geometricPrecision" stroke-miterlimit="1.45" shape-rendering="geometricPrecision" transform="matrix(1,0,0,1,-543,-129)" stroke-linecap="butt">
      <rect x="727" y="204" clip-path="url(#clipPath2)" fill="none" width="47" rx="4" ry="4" height="30"/>
      <text x="743.498" xml:space="preserve" y="223.7139" clip-path="url(#clipPath2)" font-family="sans-serif" stroke="none">5 -</text>
    </g>
    <g fill="rgb(255,204,0)" text-rendering="geometricPrecision" shape-rendering="geometricPrecision" transform="matrix(1,0,0,1,-543,-129)" stroke="rgb(255,204,0)">
      <rect x="558" y="264" clip-path="url(#clipPath2)" width="30" rx="4" ry="4" height="30" stroke="none"/>
    </g>
    <g text-rendering="geometricPrecision" stroke-miterlimit="1.45" shape-rendering="geometricPrecision" transform="matrix(1,0,0,1,-543,-129)" stroke-linecap="butt">
      <rect x="558" y="264" clip-path="url(#clipPath2)" fill="none" width="30" rx="4" ry="4" height="30"/>
      <text x="564.3281" xml:space="preserve" y="283.7139" clip-path="url(#clipPath2)" font-family="sans-serif" stroke="none">-11</text>
    </g>
    <g fill="rgb(255,204,0)" text-rendering="geometricPrecision" shape-rendering="geometricPrecision" transform="matrix(1,0,0,1,-543,-129)" stroke="rgb(255,204,0)">
      <rect x="596.5" y="264" clip-path="url(#clipPath2)" width="30" rx="4" ry="4" height="30" stroke="none"/>
    </g>
    <g text-rendering="geometricPrecision" stroke-miterlimit="1.45" shape-rendering="geometricPrecision" transform="matrix(1,0,0,1,-543,-129)" stroke-linecap="butt">
      <rect x="596.5" y="264" clip-path="url(#clipPath2)" fill="none" width="30" rx="4" ry="4" height="30"/>
      <text x="606.165" xml:space="preserve" y="283.7139" clip-path="url(#clipPath2)" font-family="sans-serif" stroke="none">-8</text>
    </g>
    <g fill="rgb(255,204,0)" text-rendering="geometricPrecision" shape-rendering="geometricPrecision" transform="matrix(1,0,0,1,-543,-129)" stroke="rgb(255,204,0)">
      <rect x="635" y="264" clip-path="url(#clipPath2)" width="30" rx="4" ry="4" height="30" stroke="none"/>
    </g>
    <g text-rendering="geometricPrecision" stroke-miterlimit="1.45" shape-rendering="geometricPrecision" transform="matrix(1,0,0,1,-543,-129)" stroke-linecap="butt">
      <rect x="635" y="264" clip-path="url(#clipPath2)" fill="none" width="30" rx="4" ry="4" height="30"/>
      <text x="646.6631" xml:space="preserve" y="283.7139" clip-path="url(#clipPath2)" font-family="sans-serif" stroke="none">2</text>
    </g>
    <g fill="rgb(255,204,0)" text-rendering="geometricPrecision" shape-rendering="geometricPrecision" transform="matrix(1,0,0,1,-543,-129)" stroke="rgb(255,204,0)">
      <rect x="697" y="264" clip-path="url(#clipPath2)" width="30" rx="4" ry="4" height="30" stroke="none"/>
    </g>
    <g text-rendering="geometricPrecision" stroke-miterlimit="1.45" shape-rendering="geometricPrecision" transform="matrix(1,0,0,1,-543,-129)" stroke-linecap="butt">
      <rect x="697" y="264" clip-path="url(#clipPath2)" fill="none" width="30" rx="4" ry="4" height="30"/>
      <text x="708.6631" xml:space="preserve" y="283.7139" clip-path="url(#clipPath2)" font-family="sans-serif" stroke="none">5</text>
    </g>
    <g fill="rgb(255,204,0)" text-rendering="geometricPrecision" shape-rendering="geometricPrecision" transform="matrix(1,0,0,1,-543,-129)" stroke="rgb(255,204,0)">
      <rect x="774" y="264" clip-path="url(#clipPath2)" width="30" rx="4" ry="4" height="30" stroke="none"/>
    </g>
    <g text-rendering="geometricPrecision" stroke-miterlimit="1.45" shape-rendering="geometricPrecision" transform="matrix(1,0,0,1,-543,-129)" stroke-linecap="butt">
      <rect x="774" y="264" clip-path="url(#clipPath2)" fill="none" width="30" rx="4" ry="4" height="30"/>
      <text x="785.6631" xml:space="preserve" y="283.7139" clip-path="url(#clipPath2)" font-family="sans-serif" stroke="none">7</text>
    </g>
    <g fill="rgb(204,255,204)" text-rendering="geometricPrecision" shape-rendering="geometricPrecision" transform="matrix(1,0,0,1,-543,-129)" stroke="rgb(204,255,204)">
      <rect x="866" y="204" clip-path="url(#clipPath2)" width="47" rx="4" ry="4" height="30" stroke="none"/>
    </g>
    <g text-rendering="geometricPrecision" stroke-miterlimit="1.45" shape-rendering="geometricPrecision" transform="matrix(1,0,0,1,-543,-129)" stroke-linecap="butt">
      <rect x="866" y="204" clip-path="url(#clipPath2)" fill="none" width="47" rx="4" ry="4" height="30"/>
      <text x="874.4854" xml:space="preserve" y="223.7139" clip-path="url(#clipPath2)" font-family="sans-serif" stroke="none">20 25</text>
    </g>
    <g fill="rgb(255,204,0)" text-rendering="geometricPrecision" shape-rendering="geometricPrecision" transform="matrix(1,0,0,1,-543,-129)" stroke="rgb(255,204,0)">
      <rect x="836" y="264" clip-path="url(#clipPath2)" width="30" rx="4" ry="4" height="30" stroke="none"/>
    </g>
    <g text-rendering="geometricPrecision" stroke-miterlimit="1.45" shape-rendering="geometricPrecision" transform="matrix(1,0,0,1,-543,-129)" stroke-linecap="butt">
      <rect x="836" y="264" clip-path="url(#clipPath2)" fill="none" width="30" rx="4" ry="4" height="30"/>
      <text x="844.3262" xml:space="preserve" y="283.7139" clip-path="url(#clipPath2)" font-family="sans-serif" stroke="none">11</text>
    </g>
    <g fill="rgb(255,204,0)" text-rendering="geometricPrecision" shape-rendering="geometricPrecision" transform="matrix(1,0,0,1,-543,-129)" stroke="rgb(255,204,0)">
      <rect x="874.5" y="264" clip-path="url(#clipPath2)" width="30" rx="4" ry="4" height="30" stroke="none"/>
    </g>
    <g text-rendering="geometricPrecision" stroke-miterlimit="1.45" shape-rendering="geometricPrecision" transform="matrix(1,0,0,1,-543,-129)" stroke-linecap="butt">
      <rect x="874.5" y="264" clip-path="url(#clipPath2)" fill="none" width="30" rx="4" ry="4" height="30"/>
      <text x="882.8262" xml:space="preserve" y="283.7139" clip-path="url(#clipPath2)" font-family="sans-serif" stroke="none">20</text>
    </g>
    <g fill="rgb(255,204,0)" text-rendering="geometricPrecision" shape-rendering="geometricPrecision" transform="matrix(1,0,0,1,-543,-129)" stroke="rgb(255,204,0)">
      <rect x="913" y="264" clip-path="url(#clipPath2)" width="30" rx="4" ry="4" height="30" stroke="none"/>
    </g>
    <g text-rendering="geometricPrecision" stroke-miterlimit="1.45" shape-rendering="geometricPrecision" transform="matrix(1,0,0,1,-543,-129)" stroke-linecap="butt">
      <rect x="913" y="264" clip-path="url(#clipPath2)" fill="none" width="30" rx="4" ry="4" height="30"/>
      <text x="921.3262" xml:space="preserve" y="283.7139" clip-path="url(#clipPath2)" font-family="sans-serif" stroke="none">25</text>
      <path fill="none" d="M726.9827 169.1514 L642.3306 205.6918" clip-path="url(#clipPath2)"/>
      <path d="M634.9856 208.8623 L647.9846 208.6972 L643.2487 205.2955 L644.0215 199.516 Z" clip-path="url(#clipPath2)" stroke="none"/>
      <path fill="none" d="M750.5 173.9707 L750.5 196.0049" clip-path="url(#clipPath2)"/>
      <path d="M750.5 204.0049 L755.5 192.0049 L750.5 195.0049 L745.5 192.0049 Z" clip-path="url(#clipPath2)" stroke="none"/>
      <path fill="none" d="M601.8938 233.9707 L586.9564 257.2498" clip-path="url(#clipPath2)"/>
      <path d="M582.636 263.9829 L593.3247 256.5835 L587.4964 256.4082 L584.9084 251.1831 Z" clip-path="url(#clipPath2)" stroke="none"/>
      <path fill="none" d="M611.5 233.9707 L611.5 256.0049" clip-path="url(#clipPath2)"/>
      <path d="M611.5 264.0049 L616.5 252.0049 L611.5 255.0049 L606.5 252.0049 Z" clip-path="url(#clipPath2)" stroke="none"/>
      <path fill="none" d="M621.1062 233.9707 L636.0436 257.2498" clip-path="url(#clipPath2)"/>
      <path d="M640.364 263.9829 L638.0916 251.1831 L635.5036 256.4082 L629.6753 256.5835 Z" clip-path="url(#clipPath2)" stroke="none"/>
      <path fill="none" d="M740.8938 233.9707 L725.9564 257.2498" clip-path="url(#clipPath2)"/>
      <path d="M721.636 263.9829 L732.3247 256.5835 L726.4964 256.4082 L723.9084 251.1831 Z" clip-path="url(#clipPath2)" stroke="none"/>
      <path fill="none" d="M760.1062 233.9707 L775.0436 257.2498" clip-path="url(#clipPath2)"/>
      <path d="M779.364 263.9829 L777.0916 251.1831 L774.5036 256.4082 L768.6753 256.5835 Z" clip-path="url(#clipPath2)" stroke="none"/>
      <path fill="none" d="M774.0173 169.1514 L858.6694 205.6918" clip-path="url(#clipPath2)"/>
      <path d="M866.0144 208.8623 L856.9785 199.516 L857.7513 205.2955 L853.0154 208.6972 Z" clip-path="url(#clipPath2)" stroke="none"/>
      <path fill="none" d="M879.8938 233.9707 L864.9564 257.2498" clip-path="url(#clipPath2)"/>
      <path d="M860.636 263.9829 L871.3247 256.5835 L865.4964 256.4082 L862.9084 251.1831 Z" clip-path="url(#clipPath2)" stroke="none"/>
      <path fill="none" d="M889.5 233.9707 L889.5 256.0049" clip-path="url(#clipPath2)"/>
      <path d="M889.5 264.0049 L894.5 252.0049 L889.5 255.0049 L884.5 252.0049 Z" clip-path="url(#clipPath2)" stroke="none"/>
      <path fill="none" d="M899.1062 233.9707 L914.0436 257.2498" clip-path="url(#clipPath2)"/>
      <path d="M918.364 263.9829 L916.0916 251.1831 L913.5036 256.4082 L907.6753 256.5835 Z" clip-path="url(#clipPath2)" stroke="none"/>
    </g>
  </g>
</svg>
