<?xml version="1.0" encoding="UTF-8"?><svg xmlns="http://www.w3.org/2000/svg" xmlns:xlink="http://www.w3.org/1999/xlink" fill-opacity="1" color-rendering="auto" color-interpolation="auto" text-rendering="auto" stroke="black" stroke-linecap="square" width="614" stroke-miterlimit="10" shape-rendering="auto" stroke-opacity="1" fill="black" stroke-dasharray="none" font-weight="normal" stroke-width="1" height="234" font-family="'Dialog'" font-style="normal" stroke-linejoin="miter" font-size="12px" stroke-dashoffset="0" image-rendering="auto">
  <!--Generated by ySVG 2.5-->
  <defs id="genericDefs"/>
  <g>
    <defs id="defs1">
      <clipPath clipPathUnits="userSpaceOnUse" id="clipPath1">
        <path d="M0 0 L614 0 L614 234 L0 234 L0 0 Z"/>
      </clipPath>
      <clipPath clipPathUnits="userSpaceOnUse" id="clipPath2">
        <path d="M407 174 L714 174 L714 291 L407 291 L407 174 Z"/>
      </clipPath>
    </defs>
    <g fill="white" text-rendering="geometricPrecision" shape-rendering="geometricPrecision" transform="scale(2,2) translate(-407,-174)" stroke="white">
      <rect x="407" width="307" height="117" y="174" clip-path="url(#clipPath2)" stroke="none"/>
    </g>
    <g fill="rgb(255,204,0)" text-rendering="geometricPrecision" shape-rendering="geometricPrecision" transform="matrix(2,0,0,2,-814,-348)" stroke="rgb(255,204,0)">
      <circle r="15" clip-path="url(#clipPath2)" cx="459" cy="202" stroke="none"/>
    </g>
    <g text-rendering="geometricPrecision" stroke-miterlimit="1.45" shape-rendering="geometricPrecision" transform="matrix(2,0,0,2,-814,-348)" stroke-linecap="butt">
      <circle fill="none" r="15" clip-path="url(#clipPath2)" cx="459" cy="202"/>
      <text x="455.6631" xml:space="preserve" y="206.7139" clip-path="url(#clipPath2)" font-family="sans-serif" stroke="none">1</text>
    </g>
    <g fill="rgb(255,204,0)" text-rendering="geometricPrecision" shape-rendering="geometricPrecision" transform="matrix(2,0,0,2,-814,-348)" stroke="rgb(255,204,0)">
      <circle r="15" clip-path="url(#clipPath2)" cx="544" cy="250" stroke="none"/>
    </g>
    <g text-rendering="geometricPrecision" stroke-miterlimit="1.45" shape-rendering="geometricPrecision" transform="matrix(2,0,0,2,-814,-348)" stroke-linecap="butt">
      <circle fill="none" r="15" clip-path="url(#clipPath2)" cx="544" cy="250"/>
      <text x="540.6631" xml:space="preserve" y="254.7139" clip-path="url(#clipPath2)" font-family="sans-serif" stroke="none">2</text>
    </g>
    <g fill="rgb(255,204,0)" text-rendering="geometricPrecision" shape-rendering="geometricPrecision" transform="matrix(2,0,0,2,-814,-348)" stroke="rgb(255,204,0)">
      <circle r="15" clip-path="url(#clipPath2)" cx="663" cy="237" stroke="none"/>
    </g>
    <g text-rendering="geometricPrecision" stroke-miterlimit="1.45" shape-rendering="geometricPrecision" transform="matrix(2,0,0,2,-814,-348)" stroke-linecap="butt">
      <circle fill="none" r="15" clip-path="url(#clipPath2)" cx="663" cy="237"/>
      <text x="659.6631" xml:space="preserve" y="241.7139" clip-path="url(#clipPath2)" font-family="sans-serif" stroke="none">3</text>
      <path fill="none" d="M472.0613 209.3758 L530.9387 242.6242" clip-path="url(#clipPath2)"/>
      <path fill="none" d="M465.3116 215.6075 L473.8281 233.9688 L479.3027 242.6758 L485.375 247.75 L493.4629 250.1055 L504.9844 250.6562 L529.0021 250.2523" clip-path="url(#clipPath2)"/>
      <text x="417.1099" xml:space="preserve" y="277.7605" clip-path="url(#clipPath2)" font-family="sans-serif" stroke="none">Többszörös él</text>
      <path fill="none" d="M538.0193 236.2439 L529.7344 217.1875 L523.3457 207.3906 L516.125 201.25 L507.0762 198.2031 L495.2031 197.6875 L473.8947 200.2258" clip-path="url(#clipPath2)"/>
      <path fill="none" d="M556.8256 242.2215 L576.7969 230.1094 L588.9473 224.7051 L600.125 222.125 L611.7246 222.2168 L625.1406 224.8281 L648.7198 232.4089" clip-path="url(#clipPath2)"/>
      <path fill="none" d="M669.7288 223.5939 L670.2891 222.4775 L677.0625 212.3203 L683.1797 206.0186 L688.5 203.0625 L692.8828 202.9424 L696.1875 205.1484 L698.2734 209.1709 L699 214.5 L698.4375 223.5703 L697.1016 226.585 L694.5 228.9375 L683.8125 232.7109 L677.6913 233.9724" clip-path="url(#clipPath2)"/>
      <text x="662.3252" xml:space="preserve" y="196.7139" clip-path="url(#clipPath2)" font-family="sans-serif" stroke="none">Hurokél</text>
      <path fill="none" d="M651.2663 246.3445 L648.084 248.8789 L633.8594 258.7188 L619.9863 266.0742 L606.125 270.5 L591.9355 271.5508 L577.0781 268.7812 L561.2129 261.7461 L556.3901 258.455" clip-path="url(#clipPath2)"/>
    </g>
  </g>
</svg>
