<?xml version="1.0" encoding="UTF-8"?><svg xmlns="http://www.w3.org/2000/svg" xmlns:xlink="http://www.w3.org/1999/xlink" fill-opacity="1" color-rendering="auto" color-interpolation="auto" text-rendering="auto" stroke="black" stroke-linecap="square" width="1294" stroke-miterlimit="10" shape-rendering="auto" stroke-opacity="1" fill="black" stroke-dasharray="none" font-weight="normal" stroke-width="1" height="644" font-family="'Dialog'" font-style="normal" stroke-linejoin="miter" font-size="12px" stroke-dashoffset="0" image-rendering="auto">
  <!--Generated by ySVG 2.5-->
  <defs id="genericDefs"/>
  <g>
    <defs id="defs1">
      <clipPath clipPathUnits="userSpaceOnUse" id="clipPath1">
        <path d="M0 0 L1294 0 L1294 644 L0 644 L0 0 Z"/>
      </clipPath>
      <clipPath clipPathUnits="userSpaceOnUse" id="clipPath2">
        <path d="M272 141 L919 141 L919 463 L272 463 L272 141 Z"/>
      </clipPath>
    </defs>
    <g fill="white" text-rendering="geometricPrecision" shape-rendering="geometricPrecision" transform="scale(2,2) translate(-272,-141)" stroke="white">
      <rect x="272" width="647" height="322" y="141" clip-path="url(#clipPath2)" stroke="none"/>
    </g>
    <g fill="rgb(255,204,0)" text-rendering="geometricPrecision" shape-rendering="geometricPrecision" transform="matrix(2,0,0,2,-544,-282)" stroke="rgb(255,204,0)">
      <rect x="590" y="149" clip-path="url(#clipPath2)" width="147" rx="4" ry="4" height="30" stroke="none"/>
    </g>
    <g text-rendering="geometricPrecision" stroke-miterlimit="1.45" shape-rendering="geometricPrecision" transform="matrix(2,0,0,2,-544,-282)" stroke-linecap="butt">
      <rect x="590" y="149" clip-path="url(#clipPath2)" fill="none" width="147" rx="4" ry="4" height="30"/>
      <text x="612.1367" xml:space="preserve" y="168.7139" clip-path="url(#clipPath2)" font-family="sans-serif" stroke="none">Nyugati pályaudvar</text>
    </g>
    <g fill="rgb(255,204,0)" text-rendering="geometricPrecision" shape-rendering="geometricPrecision" transform="matrix(2,0,0,2,-544,-282)" stroke="rgb(255,204,0)">
      <rect x="545" y="229" clip-path="url(#clipPath2)" width="147" rx="4" ry="4" height="30" stroke="none"/>
    </g>
    <g text-rendering="geometricPrecision" stroke-miterlimit="1.45" shape-rendering="geometricPrecision" transform="matrix(2,0,0,2,-544,-282)" stroke-linecap="butt">
      <rect x="545" y="229" clip-path="url(#clipPath2)" fill="none" width="147" rx="4" ry="4" height="30"/>
      <text x="572.1406" xml:space="preserve" y="248.7139" clip-path="url(#clipPath2)" font-family="sans-serif" stroke="none">Arany János utca</text>
    </g>
    <g fill="rgb(255,204,0)" text-rendering="geometricPrecision" shape-rendering="geometricPrecision" transform="matrix(2,0,0,2,-544,-282)" stroke="rgb(255,204,0)">
      <rect x="519" y="319" clip-path="url(#clipPath2)" width="147" rx="4" ry="4" height="30" stroke="none"/>
    </g>
    <g text-rendering="geometricPrecision" stroke-miterlimit="1.45" shape-rendering="geometricPrecision" transform="matrix(2,0,0,2,-544,-282)" stroke-linecap="butt">
      <rect x="519" y="319" clip-path="url(#clipPath2)" fill="none" width="147" rx="4" ry="4" height="30"/>
      <text x="549.4834" xml:space="preserve" y="338.7139" clip-path="url(#clipPath2)" font-family="sans-serif" stroke="none">Deák Ferenc tér</text>
    </g>
    <g fill="rgb(255,204,0)" text-rendering="geometricPrecision" shape-rendering="geometricPrecision" transform="matrix(2,0,0,2,-544,-282)" stroke="rgb(255,204,0)">
      <rect x="504" y="425" clip-path="url(#clipPath2)" width="147" rx="4" ry="4" height="30" stroke="none"/>
    </g>
    <g text-rendering="geometricPrecision" stroke-miterlimit="1.45" shape-rendering="geometricPrecision" transform="matrix(2,0,0,2,-544,-282)" stroke-linecap="butt">
      <rect x="504" y="425" clip-path="url(#clipPath2)" fill="none" width="147" rx="4" ry="4" height="30"/>
      <text x="539.1504" xml:space="preserve" y="444.7139" clip-path="url(#clipPath2)" font-family="sans-serif" stroke="none">Ferenciek tere</text>
    </g>
    <g fill="rgb(255,204,0)" text-rendering="geometricPrecision" shape-rendering="geometricPrecision" transform="matrix(2,0,0,2,-544,-282)" stroke="rgb(255,204,0)">
      <rect x="764" y="340" clip-path="url(#clipPath2)" width="147" rx="4" ry="4" height="30" stroke="none"/>
    </g>
    <g text-rendering="geometricPrecision" stroke-miterlimit="1.45" shape-rendering="geometricPrecision" transform="matrix(2,0,0,2,-544,-282)" stroke-linecap="butt">
      <rect x="764" y="340" clip-path="url(#clipPath2)" fill="none" width="147" rx="4" ry="4" height="30"/>
      <text x="818.8262" xml:space="preserve" y="359.7139" clip-path="url(#clipPath2)" font-family="sans-serif" stroke="none">Astoria</text>
    </g>
    <g fill="rgb(255,204,0)" text-rendering="geometricPrecision" shape-rendering="geometricPrecision" transform="matrix(2,0,0,2,-544,-282)" stroke="rgb(255,204,0)">
      <rect x="280" y="304" clip-path="url(#clipPath2)" width="147" rx="4" ry="4" height="30" stroke="none"/>
    </g>
    <g text-rendering="geometricPrecision" stroke-miterlimit="1.45" shape-rendering="geometricPrecision" transform="matrix(2,0,0,2,-544,-282)" stroke-linecap="butt">
      <rect x="280" y="304" clip-path="url(#clipPath2)" fill="none" width="147" rx="4" ry="4" height="30"/>
      <text x="307.1406" xml:space="preserve" y="323.7139" clip-path="url(#clipPath2)" font-family="sans-serif" stroke="none">Kossuth Lajos tér</text>
      <path fill="none" d="M655.0845 178.9609 L626.9495 228.9788" clip-path="url(#clipPath2)"/>
      <text x="591.1457" xml:space="preserve" y="206.506" clip-path="url(#clipPath2)" font-family="sans-serif" stroke="none">1 perc</text>
      <path fill="none" d="M614.1709 258.9854 L596.8278 319.019" clip-path="url(#clipPath2)"/>
      <text x="557.5975" xml:space="preserve" y="293.7139" clip-path="url(#clipPath2)" font-family="sans-serif" stroke="none">1 perc</text>
      <path fill="none" d="M590.3796 348.9839 L579.6194 425.0232" clip-path="url(#clipPath2)"/>
      <text x="538.0253" xml:space="preserve" y="391.7139" clip-path="url(#clipPath2)" font-family="sans-serif" stroke="none">2 perc</text>
      <path fill="none" d="M665.9821 340.2985 L764.0103 348.7009" clip-path="url(#clipPath2)"/>
      <text x="685.2053" xml:space="preserve" y="378.1994" clip-path="url(#clipPath2)" font-family="sans-serif" stroke="none">1 perc</text>
      <path fill="none" d="M519.0087 329.3876 L427.001 323.613" clip-path="url(#clipPath2)"/>
      <text x="469.1017" xml:space="preserve" y="301.9568" clip-path="url(#clipPath2)" font-family="sans-serif" stroke="none">2 perc</text>
    </g>
  </g>
</svg>
