<?xml version="1.0" encoding="UTF-8"?><svg xmlns="http://www.w3.org/2000/svg" xmlns:xlink="http://www.w3.org/1999/xlink" fill-opacity="1" color-rendering="auto" color-interpolation="auto" text-rendering="auto" stroke="black" stroke-linecap="square" width="478" stroke-miterlimit="10" shape-rendering="auto" stroke-opacity="1" fill="black" stroke-dasharray="none" font-weight="normal" stroke-width="1" height="422" font-family="'Dialog'" font-style="normal" stroke-linejoin="miter" font-size="12px" stroke-dashoffset="0" image-rendering="auto">
  <!--Generated by ySVG 2.5-->
  <defs id="genericDefs"/>
  <g>
    <defs id="defs1">
      <clipPath clipPathUnits="userSpaceOnUse" id="clipPath1">
        <path d="M0 0 L478 0 L478 422 L0 422 L0 0 Z"/>
      </clipPath>
      <clipPath clipPathUnits="userSpaceOnUse" id="clipPath2">
        <path d="M544 159 L783 159 L783 370 L544 370 L544 159 Z"/>
      </clipPath>
    </defs>
    <g fill="white" text-rendering="geometricPrecision" shape-rendering="geometricPrecision" transform="scale(2,2) translate(-544,-159)" stroke="white">
      <rect x="544" width="239" height="211" y="159" clip-path="url(#clipPath2)" stroke="none"/>
    </g>
    <g fill="rgb(255,204,0)" text-rendering="geometricPrecision" shape-rendering="geometricPrecision" transform="matrix(2,0,0,2,-1088,-318)" stroke="rgb(255,204,0)">
      <circle r="15" clip-path="url(#clipPath2)" cx="567" cy="218" stroke="none"/>
    </g>
    <g text-rendering="geometricPrecision" stroke-miterlimit="1.45" shape-rendering="geometricPrecision" transform="matrix(2,0,0,2,-1088,-318)" stroke-linecap="butt">
      <circle fill="none" r="15" clip-path="url(#clipPath2)" cx="567" cy="218"/>
      <text x="563.6631" xml:space="preserve" y="222.7139" clip-path="url(#clipPath2)" font-family="sans-serif" stroke="none">1</text>
    </g>
    <g fill="rgb(255,204,0)" text-rendering="geometricPrecision" shape-rendering="geometricPrecision" transform="matrix(2,0,0,2,-1088,-318)" stroke="rgb(255,204,0)">
      <circle r="15" clip-path="url(#clipPath2)" cx="673" cy="182" stroke="none"/>
    </g>
    <g text-rendering="geometricPrecision" stroke-miterlimit="1.45" shape-rendering="geometricPrecision" transform="matrix(2,0,0,2,-1088,-318)" stroke-linecap="butt">
      <circle fill="none" r="15" clip-path="url(#clipPath2)" cx="673" cy="182"/>
      <text x="669.6631" xml:space="preserve" y="186.7139" clip-path="url(#clipPath2)" font-family="sans-serif" stroke="none">2</text>
    </g>
    <g fill="rgb(255,204,0)" text-rendering="geometricPrecision" shape-rendering="geometricPrecision" transform="matrix(2,0,0,2,-1088,-318)" stroke="rgb(255,204,0)">
      <circle r="15" clip-path="url(#clipPath2)" cx="760" cy="262" stroke="none"/>
    </g>
    <g text-rendering="geometricPrecision" stroke-miterlimit="1.45" shape-rendering="geometricPrecision" transform="matrix(2,0,0,2,-1088,-318)" stroke-linecap="butt">
      <circle fill="none" r="15" clip-path="url(#clipPath2)" cx="760" cy="262"/>
      <text x="756.6631" xml:space="preserve" y="266.7139" clip-path="url(#clipPath2)" font-family="sans-serif" stroke="none">3</text>
    </g>
    <g fill="rgb(255,204,0)" text-rendering="geometricPrecision" shape-rendering="geometricPrecision" transform="matrix(2,0,0,2,-1088,-318)" stroke="rgb(255,204,0)">
      <circle r="15" clip-path="url(#clipPath2)" cx="701" cy="347" stroke="none"/>
    </g>
    <g text-rendering="geometricPrecision" stroke-miterlimit="1.45" shape-rendering="geometricPrecision" transform="matrix(2,0,0,2,-1088,-318)" stroke-linecap="butt">
      <circle fill="none" r="15" clip-path="url(#clipPath2)" cx="701" cy="347"/>
      <text x="697.6631" xml:space="preserve" y="351.7139" clip-path="url(#clipPath2)" font-family="sans-serif" stroke="none">4</text>
    </g>
    <g fill="rgb(255,204,0)" text-rendering="geometricPrecision" shape-rendering="geometricPrecision" transform="matrix(2,0,0,2,-1088,-318)" stroke="rgb(255,204,0)">
      <circle r="15" clip-path="url(#clipPath2)" cx="594" cy="323" stroke="none"/>
    </g>
    <g text-rendering="geometricPrecision" stroke-miterlimit="1.45" shape-rendering="geometricPrecision" transform="matrix(2,0,0,2,-1088,-318)" stroke-linecap="butt">
      <circle fill="none" r="15" clip-path="url(#clipPath2)" cx="594" cy="323"/>
      <text x="590.6631" xml:space="preserve" y="327.7139" clip-path="url(#clipPath2)" font-family="sans-serif" stroke="none">5</text>
      <path fill="none" d="M581.2032 213.1763 L658.7968 186.8237" clip-path="url(#clipPath2)"/>
      <path fill="none" d="M684.0415 192.1531 L748.9585 251.8469" clip-path="url(#clipPath2)"/>
      <path fill="none" d="M745.3752 258.6659 L581.6248 221.3341" clip-path="url(#clipPath2)"/>
      <path fill="none" d="M690.1937 336.5969 L577.8063 228.4031" clip-path="url(#clipPath2)"/>
      <path fill="none" d="M570.7356 232.5274 L590.2644 308.4726" clip-path="url(#clipPath2)"/>
    </g>
  </g>
</svg>
