<?xml version="1.0" encoding="UTF-8"?><svg xmlns="http://www.w3.org/2000/svg" xmlns:xlink="http://www.w3.org/1999/xlink" fill-opacity="1" color-rendering="auto" color-interpolation="auto" text-rendering="auto" stroke="black" stroke-linecap="square" width="566" stroke-miterlimit="10" shape-rendering="auto" stroke-opacity="1" fill="black" stroke-dasharray="none" font-weight="normal" stroke-width="1" height="288" font-family="'Dialog'" font-style="normal" stroke-linejoin="miter" font-size="12px" stroke-dashoffset="0" image-rendering="auto">
  <!--Generated by ySVG 2.5-->
  <defs id="genericDefs"/>
  <g>
    <defs id="defs1">
      <clipPath clipPathUnits="userSpaceOnUse" id="clipPath1">
        <path d="M0 0 L566 0 L566 288 L0 288 L0 0 Z"/>
      </clipPath>
      <clipPath clipPathUnits="userSpaceOnUse" id="clipPath2">
        <path d="M300 126 L583 126 L583 270 L300 270 L300 126 Z"/>
      </clipPath>
    </defs>
    <g fill="white" text-rendering="geometricPrecision" shape-rendering="geometricPrecision" transform="scale(2,2) translate(-300,-126)" stroke="white">
      <rect x="300" width="283" height="144" y="126" clip-path="url(#clipPath2)" stroke="none"/>
    </g>
    <g fill="rgb(255,204,0)" text-rendering="geometricPrecision" shape-rendering="geometricPrecision" transform="matrix(2,0,0,2,-600,-252)" stroke="rgb(255,204,0)">
      <rect x="333" y="153" clip-path="url(#clipPath2)" width="106" rx="4" ry="4" height="30" stroke="none"/>
    </g>
    <g text-rendering="geometricPrecision" stroke-miterlimit="1.45" shape-rendering="geometricPrecision" transform="matrix(2,0,0,2,-600,-252)" stroke-linecap="butt">
      <rect x="333" y="153" clip-path="url(#clipPath2)" fill="none" width="106" rx="4" ry="4" height="30"/>
      <text x="353.9844" xml:space="preserve" y="172.7139" clip-path="url(#clipPath2)" font-family="sans-serif" stroke="none">Specifikáció</text>
    </g>
    <g fill="rgb(255,204,0)" text-rendering="geometricPrecision" shape-rendering="geometricPrecision" transform="matrix(2,0,0,2,-600,-252)" stroke="rgb(255,204,0)">
      <rect x="469" y="153" clip-path="url(#clipPath2)" width="106" rx="4" ry="4" height="30" stroke="none"/>
    </g>
    <g text-rendering="geometricPrecision" stroke-miterlimit="1.45" shape-rendering="geometricPrecision" transform="matrix(2,0,0,2,-600,-252)" stroke-linecap="butt">
      <rect x="469" y="153" clip-path="url(#clipPath2)" fill="none" width="106" rx="4" ry="4" height="30"/>
      <text x="497.3262" xml:space="preserve" y="172.7139" clip-path="url(#clipPath2)" font-family="sans-serif" stroke="none">Tervezés</text>
    </g>
    <g fill="rgb(255,204,0)" text-rendering="geometricPrecision" shape-rendering="geometricPrecision" transform="matrix(2,0,0,2,-600,-252)" stroke="rgb(255,204,0)">
      <rect x="469" y="213" clip-path="url(#clipPath2)" width="106" rx="4" ry="4" height="30" stroke="none"/>
    </g>
    <g text-rendering="geometricPrecision" stroke-miterlimit="1.45" shape-rendering="geometricPrecision" transform="matrix(2,0,0,2,-600,-252)" stroke-linecap="butt">
      <rect x="469" y="213" clip-path="url(#clipPath2)" fill="none" width="106" rx="4" ry="4" height="30"/>
      <text x="494.9912" xml:space="preserve" y="232.7139" clip-path="url(#clipPath2)" font-family="sans-serif" stroke="none">Fejlesztés</text>
    </g>
    <g fill="rgb(255,204,0)" text-rendering="geometricPrecision" shape-rendering="geometricPrecision" transform="matrix(2,0,0,2,-600,-252)" stroke="rgb(255,204,0)">
      <rect x="333" y="213" clip-path="url(#clipPath2)" width="106" rx="4" ry="4" height="30" stroke="none"/>
    </g>
    <g text-rendering="geometricPrecision" stroke-miterlimit="1.45" shape-rendering="geometricPrecision" transform="matrix(2,0,0,2,-600,-252)" stroke-linecap="butt">
      <rect x="333" y="213" clip-path="url(#clipPath2)" fill="none" width="106" rx="4" ry="4" height="30"/>
      <text x="360.3242" xml:space="preserve" y="232.7139" clip-path="url(#clipPath2)" font-family="sans-serif" stroke="none">Tesztelés</text>
      <path fill="none" d="M403.2324 152.9797 L420 142.5 L437 136.125 L445.5 134.5312 L454 134 L462.5 134.5312 L471 136.125 L488 142.5 L497.9836 148.7397" clip-path="url(#clipPath2)"/>
      <path d="M504.7676 152.9797 L497.2416 142.3798 L497.1356 148.2097 L491.9416 150.8598 Z" clip-path="url(#clipPath2)" stroke="none"/>
      <path fill="none" d="M533.2317 182.9707 L533.25 183 L536.0625 190.5 L537 198 L536.0652 205.4783 L536.0301 205.5719" clip-path="url(#clipPath2)"/>
      <path d="M533.226 213.0644 L542.115 203.5783 L536.3806 204.6354 L532.7494 200.0731 Z" clip-path="url(#clipPath2)" stroke="none"/>
      <path fill="none" d="M504.7676 243.0203 L488 253.5 L471 259.875 L462.5 261.4688 L454 262 L445.5 261.4688 L437 259.875 L420 253.5 L410.0164 247.2603" clip-path="url(#clipPath2)"/>
      <path d="M403.2324 243.0203 L410.7584 253.6202 L410.8644 247.7903 L416.0584 245.1402 Z" clip-path="url(#clipPath2)" stroke="none"/>
      <path fill="none" d="M374.739 212.9707 L371.9375 205.5 L371 198 L371.9375 190.5 L371.9529 190.4589 L372.0059 190.3741" clip-path="url(#clipPath2)"/>
      <path d="M374.8026 182.8789 L365.9231 192.3738 L371.6563 191.311 L375.2921 195.8697 Z" clip-path="url(#clipPath2)" stroke="none"/>
      <text x="310.7842" xml:space="preserve" y="202.7139" clip-path="url(#clipPath2)" font-family="sans-serif" stroke="none">Új iteráció</text>
    </g>
  </g>
</svg>
