<?xml version="1.0" encoding="UTF-8"?><svg xmlns="http://www.w3.org/2000/svg" xmlns:xlink="http://www.w3.org/1999/xlink" fill-opacity="1" color-rendering="auto" color-interpolation="auto" text-rendering="auto" stroke="black" stroke-linecap="square" width="496" stroke-miterlimit="10" shape-rendering="auto" stroke-opacity="1" fill="black" stroke-dasharray="none" font-weight="normal" stroke-width="1" height="510" font-family="'Dialog'" font-style="normal" stroke-linejoin="miter" font-size="12px" stroke-dashoffset="0" image-rendering="auto">
  <!--Generated by ySVG 2.5-->
  <defs id="genericDefs"/>
  <g>
    <defs id="defs1">
      <clipPath clipPathUnits="userSpaceOnUse" id="clipPath1">
        <path d="M0 0 L496 0 L496 510 L0 510 L0 0 Z"/>
      </clipPath>
      <clipPath clipPathUnits="userSpaceOnUse" id="clipPath2">
        <path d="M492 159 L740 159 L740 414 L492 414 L492 159 Z"/>
      </clipPath>
    </defs>
    <g fill="white" text-rendering="geometricPrecision" shape-rendering="geometricPrecision" transform="scale(2,2) translate(-492,-159)" stroke="white">
      <rect x="492" width="248" height="255" y="159" clip-path="url(#clipPath2)" stroke="none"/>
    </g>
    <g fill="rgb(255,204,0)" text-rendering="geometricPrecision" shape-rendering="geometricPrecision" transform="matrix(2,0,0,2,-984,-318)" stroke="rgb(255,204,0)">
      <circle r="15" clip-path="url(#clipPath2)" cx="588" cy="182" stroke="none"/>
    </g>
    <g text-rendering="geometricPrecision" stroke-miterlimit="1.45" shape-rendering="geometricPrecision" transform="matrix(2,0,0,2,-984,-318)" stroke-linecap="butt">
      <circle fill="none" r="15" clip-path="url(#clipPath2)" cx="588" cy="182"/>
      <text x="584.6631" xml:space="preserve" y="186.7139" clip-path="url(#clipPath2)" font-family="sans-serif" stroke="none">1</text>
    </g>
    <g fill="rgb(255,204,0)" text-rendering="geometricPrecision" shape-rendering="geometricPrecision" transform="matrix(2,0,0,2,-984,-318)" stroke="rgb(255,204,0)">
      <circle r="15" clip-path="url(#clipPath2)" cx="717" cy="236" stroke="none"/>
    </g>
    <g text-rendering="geometricPrecision" stroke-miterlimit="1.45" shape-rendering="geometricPrecision" transform="matrix(2,0,0,2,-984,-318)" stroke-linecap="butt">
      <circle fill="none" r="15" clip-path="url(#clipPath2)" cx="717" cy="236"/>
      <text x="713.6631" xml:space="preserve" y="240.7139" clip-path="url(#clipPath2)" font-family="sans-serif" stroke="none">2</text>
    </g>
    <g fill="rgb(255,204,0)" text-rendering="geometricPrecision" shape-rendering="geometricPrecision" transform="matrix(2,0,0,2,-984,-318)" stroke="rgb(255,204,0)">
      <circle r="15" clip-path="url(#clipPath2)" cx="692" cy="344" stroke="none"/>
    </g>
    <g text-rendering="geometricPrecision" stroke-miterlimit="1.45" shape-rendering="geometricPrecision" transform="matrix(2,0,0,2,-984,-318)" stroke-linecap="butt">
      <circle fill="none" r="15" clip-path="url(#clipPath2)" cx="692" cy="344"/>
      <text x="688.6631" xml:space="preserve" y="348.7139" clip-path="url(#clipPath2)" font-family="sans-serif" stroke="none">3</text>
    </g>
    <g fill="rgb(255,204,0)" text-rendering="geometricPrecision" shape-rendering="geometricPrecision" transform="matrix(2,0,0,2,-984,-318)" stroke="rgb(255,204,0)">
      <circle r="15" clip-path="url(#clipPath2)" cx="633" cy="260" stroke="none"/>
    </g>
    <g text-rendering="geometricPrecision" stroke-miterlimit="1.45" shape-rendering="geometricPrecision" transform="matrix(2,0,0,2,-984,-318)" stroke-linecap="butt">
      <circle fill="none" r="15" clip-path="url(#clipPath2)" cx="633" cy="260"/>
      <text x="629.6631" xml:space="preserve" y="264.7139" clip-path="url(#clipPath2)" font-family="sans-serif" stroke="none">4</text>
    </g>
    <g fill="rgb(255,204,0)" text-rendering="geometricPrecision" shape-rendering="geometricPrecision" transform="matrix(2,0,0,2,-984,-318)" stroke="rgb(255,204,0)">
      <circle r="15" clip-path="url(#clipPath2)" cx="515" cy="329" stroke="none"/>
    </g>
    <g text-rendering="geometricPrecision" stroke-miterlimit="1.45" shape-rendering="geometricPrecision" transform="matrix(2,0,0,2,-984,-318)" stroke-linecap="butt">
      <circle fill="none" r="15" clip-path="url(#clipPath2)" cx="515" cy="329"/>
      <text x="511.6631" xml:space="preserve" y="333.7139" clip-path="url(#clipPath2)" font-family="sans-serif" stroke="none">5</text>
    </g>
    <g fill="rgb(255,204,0)" text-rendering="geometricPrecision" shape-rendering="geometricPrecision" transform="matrix(2,0,0,2,-984,-318)" stroke="rgb(255,204,0)">
      <circle r="15" clip-path="url(#clipPath2)" cx="587" cy="391" stroke="none"/>
    </g>
    <g text-rendering="geometricPrecision" stroke-miterlimit="1.45" shape-rendering="geometricPrecision" transform="matrix(2,0,0,2,-984,-318)" stroke-linecap="butt">
      <circle fill="none" r="15" clip-path="url(#clipPath2)" cx="587" cy="391"/>
      <text x="583.6631" xml:space="preserve" y="395.7139" clip-path="url(#clipPath2)" font-family="sans-serif" stroke="none">6</text>
      <path fill="none" d="M695.3828 329.3864 L713.6172 250.6136" clip-path="url(#clipPath2)"/>
      <path fill="none" d="M595.4958 194.9928 L625.5042 247.0072" clip-path="url(#clipPath2)"/>
      <path fill="none" d="M683.3785 331.7253 L641.6215 272.2747" clip-path="url(#clipPath2)"/>
      <path fill="none" d="M647.4229 255.8792 L702.5771 240.1208" clip-path="url(#clipPath2)"/>
      <path fill="none" d="M526.3665 338.7878 L575.6335 381.2122" clip-path="url(#clipPath2)"/>
    </g>
  </g>
</svg>
