<?xml version="1.0" encoding="UTF-8"?><svg xmlns="http://www.w3.org/2000/svg" xmlns:xlink="http://www.w3.org/1999/xlink" fill-opacity="1" color-rendering="auto" color-interpolation="auto" text-rendering="auto" stroke="black" stroke-linecap="square" width="586" stroke-miterlimit="10" shape-rendering="auto" stroke-opacity="1" fill="black" stroke-dasharray="none" font-weight="normal" stroke-width="1" height="380" font-family="'Dialog'" font-style="normal" stroke-linejoin="miter" font-size="12px" stroke-dashoffset="0" image-rendering="auto">
  <!--Generated by ySVG 2.5-->
  <defs id="genericDefs"/>
  <g>
    <defs id="defs1">
      <clipPath clipPathUnits="userSpaceOnUse" id="clipPath1">
        <path d="M0 0 L586 0 L586 380 L0 380 L0 0 Z"/>
      </clipPath>
      <clipPath clipPathUnits="userSpaceOnUse" id="clipPath2">
        <path d="M478 190 L771 190 L771 380 L478 380 L478 190 Z"/>
      </clipPath>
    </defs>
    <g fill="white" text-rendering="geometricPrecision" shape-rendering="geometricPrecision" transform="scale(2,2) translate(-478,-190)" stroke="white">
      <rect x="478" width="293" height="190" y="190" clip-path="url(#clipPath2)" stroke="none"/>
    </g>
    <g fill="rgb(255,204,0)" text-rendering="geometricPrecision" shape-rendering="geometricPrecision" transform="matrix(2,0,0,2,-956,-380)" stroke="rgb(255,204,0)">
      <rect x="629" y="212" clip-path="url(#clipPath2)" width="59" rx="4" ry="4" height="30" stroke="none"/>
    </g>
    <g text-rendering="geometricPrecision" stroke-miterlimit="1.45" shape-rendering="geometricPrecision" transform="matrix(2,0,0,2,-956,-380)" stroke-linecap="butt">
      <rect x="629" y="212" clip-path="url(#clipPath2)" fill="none" width="59" rx="4" ry="4" height="30"/>
      <text x="646.4912" xml:space="preserve" y="231.7139" clip-path="url(#clipPath2)" font-family="sans-serif" stroke="none">Béla</text>
    </g>
    <g fill="rgb(255,204,0)" text-rendering="geometricPrecision" shape-rendering="geometricPrecision" transform="matrix(2,0,0,2,-956,-380)" stroke="rgb(255,204,0)">
      <rect x="527" y="287" clip-path="url(#clipPath2)" width="59" rx="4" ry="4" height="30" stroke="none"/>
    </g>
    <g text-rendering="geometricPrecision" stroke-miterlimit="1.45" shape-rendering="geometricPrecision" transform="matrix(2,0,0,2,-956,-380)" stroke-linecap="butt">
      <rect x="527" y="287" clip-path="url(#clipPath2)" fill="none" width="59" rx="4" ry="4" height="30"/>
      <text x="539.165" xml:space="preserve" y="306.7139" clip-path="url(#clipPath2)" font-family="sans-serif" stroke="none">Zsuzsi</text>
    </g>
    <g fill="rgb(255,204,0)" text-rendering="geometricPrecision" shape-rendering="geometricPrecision" transform="matrix(2,0,0,2,-956,-380)" stroke="rgb(255,204,0)">
      <rect x="704" y="267" clip-path="url(#clipPath2)" width="59" rx="4" ry="4" height="30" stroke="none"/>
    </g>
    <g text-rendering="geometricPrecision" stroke-miterlimit="1.45" shape-rendering="geometricPrecision" transform="matrix(2,0,0,2,-956,-380)" stroke-linecap="butt">
      <rect x="704" y="267" clip-path="url(#clipPath2)" fill="none" width="59" rx="4" ry="4" height="30"/>
      <text x="720.8262" xml:space="preserve" y="286.7139" clip-path="url(#clipPath2)" font-family="sans-serif" stroke="none">Jocó</text>
    </g>
    <g fill="rgb(255,204,0)" text-rendering="geometricPrecision" shape-rendering="geometricPrecision" transform="matrix(2,0,0,2,-956,-380)" stroke="rgb(255,204,0)">
      <rect x="629" y="342" clip-path="url(#clipPath2)" width="59" rx="4" ry="4" height="30" stroke="none"/>
    </g>
    <g text-rendering="geometricPrecision" stroke-miterlimit="1.45" shape-rendering="geometricPrecision" transform="matrix(2,0,0,2,-956,-380)" stroke-linecap="butt">
      <rect x="629" y="342" clip-path="url(#clipPath2)" fill="none" width="59" rx="4" ry="4" height="30"/>
      <text x="645.167" xml:space="preserve" y="361.7139" clip-path="url(#clipPath2)" font-family="sans-serif" stroke="none">Tomi</text>
    </g>
    <g fill="rgb(255,204,0)" text-rendering="geometricPrecision" shape-rendering="geometricPrecision" transform="matrix(2,0,0,2,-956,-380)" stroke="rgb(255,204,0)">
      <rect x="486" y="198" clip-path="url(#clipPath2)" width="59" rx="4" ry="4" height="30" stroke="none"/>
    </g>
    <g text-rendering="geometricPrecision" stroke-miterlimit="1.45" shape-rendering="geometricPrecision" transform="matrix(2,0,0,2,-956,-380)" stroke-linecap="butt">
      <rect x="486" y="198" clip-path="url(#clipPath2)" fill="none" width="59" rx="4" ry="4" height="30"/>
      <text x="504.4932" xml:space="preserve" y="217.7139" clip-path="url(#clipPath2)" font-family="sans-serif" stroke="none">Laci</text>
      <path fill="none" d="M576.895 287.0037 L631.6934 246.7107" clip-path="url(#clipPath2)"/>
      <path d="M638.1386 241.9716 L625.5089 245.052 L630.8878 247.3031 L631.4327 253.1086 Z" clip-path="url(#clipPath2)" stroke="none"/>
      <path fill="none" d="M713.0288 266.9878 L685.4261 246.7458" clip-path="url(#clipPath2)"/>
      <path d="M678.9749 242.0149 L685.6949 253.1433 L686.2325 247.3372 L691.6086 245.0793 Z" clip-path="url(#clipPath2)" stroke="none"/>
      <path fill="none" d="M658.5 341.9878 L658.5 250.0192" clip-path="url(#clipPath2)"/>
      <path d="M658.5 242.0192 L653.5 254.0192 L658.5 251.0192 L663.5 254.0192 Z" clip-path="url(#clipPath2)" stroke="none"/>
      <path fill="none" d="M628.9993 224.1118 L552.9728 216.6687" clip-path="url(#clipPath2)"/>
      <path d="M545.0109 215.8892 L556.4666 222.0346 L553.9681 216.7661 L557.441 212.0822 Z" clip-path="url(#clipPath2)" stroke="none"/>
      <path fill="none" d="M512.497 228.0138 L504.0898 270.0469 L500.3608 293.0156 L498.1875 312.5625 L497.7485 328.8984 L499.2227 342.2344 L502.7886 352.7812 L508.625 360.75 L516.9106 366.3516 L527.8242 369.7969 L541.5444 371.2969 L558.25 371.0625 L601.332 366.2344 L621.0972 363.0417" clip-path="url(#clipPath2)"/>
      <path d="M628.9949 361.766 L616.3511 358.7435 L620.11 363.2011 L617.9457 368.6155 Z" clip-path="url(#clipPath2)" stroke="none"/>
    </g>
  </g>
</svg>
