<?xml version="1.0" encoding="UTF-8"?><svg xmlns="http://www.w3.org/2000/svg" xmlns:xlink="http://www.w3.org/1999/xlink" fill-opacity="1" color-rendering="auto" color-interpolation="auto" text-rendering="auto" stroke="black" stroke-linecap="square" width="432" stroke-miterlimit="10" shape-rendering="auto" stroke-opacity="1" fill="black" stroke-dasharray="none" font-weight="normal" stroke-width="1" height="430" font-family="'Dialog'" font-style="normal" stroke-linejoin="miter" font-size="12px" stroke-dashoffset="0" image-rendering="auto">
  <!--Generated by ySVG 2.5-->
  <defs id="genericDefs"/>
  <g>
    <defs id="defs1">
      <clipPath clipPathUnits="userSpaceOnUse" id="clipPath1">
        <path d="M0 0 L432 0 L432 430 L0 430 L0 0 Z"/>
      </clipPath>
      <clipPath clipPathUnits="userSpaceOnUse" id="clipPath2">
        <path d="M542 123 L758 123 L758 338 L542 338 L542 123 Z"/>
      </clipPath>
    </defs>
    <g fill="white" text-rendering="geometricPrecision" shape-rendering="geometricPrecision" transform="scale(2,2) translate(-542,-123)" stroke="white">
      <rect x="542" width="216" height="215" y="123" clip-path="url(#clipPath2)" stroke="none"/>
    </g>
    <g fill="rgb(255,204,0)" text-rendering="geometricPrecision" shape-rendering="geometricPrecision" transform="matrix(2,0,0,2,-1084,-246)" stroke="rgb(255,204,0)">
      <circle r="15" clip-path="url(#clipPath2)" cx="685" cy="146" stroke="none"/>
    </g>
    <g text-rendering="geometricPrecision" stroke-miterlimit="1.45" shape-rendering="geometricPrecision" transform="matrix(2,0,0,2,-1084,-246)" stroke-linecap="butt">
      <circle fill="none" r="15" clip-path="url(#clipPath2)" cx="685" cy="146"/>
      <text x="681.6631" xml:space="preserve" y="150.7139" clip-path="url(#clipPath2)" font-family="sans-serif" stroke="none">1</text>
    </g>
    <g fill="rgb(255,204,0)" text-rendering="geometricPrecision" shape-rendering="geometricPrecision" transform="matrix(2,0,0,2,-1084,-246)" stroke="rgb(255,204,0)">
      <circle r="15" clip-path="url(#clipPath2)" cx="735" cy="233" stroke="none"/>
    </g>
    <g text-rendering="geometricPrecision" stroke-miterlimit="1.45" shape-rendering="geometricPrecision" transform="matrix(2,0,0,2,-1084,-246)" stroke-linecap="butt">
      <circle fill="none" r="15" clip-path="url(#clipPath2)" cx="735" cy="233"/>
      <text x="731.6631" xml:space="preserve" y="237.7139" clip-path="url(#clipPath2)" font-family="sans-serif" stroke="none">2</text>
    </g>
    <g fill="rgb(255,204,0)" text-rendering="geometricPrecision" shape-rendering="geometricPrecision" transform="matrix(2,0,0,2,-1084,-246)" stroke="rgb(255,204,0)">
      <circle r="15" clip-path="url(#clipPath2)" cx="655" cy="315" stroke="none"/>
    </g>
    <g text-rendering="geometricPrecision" stroke-miterlimit="1.45" shape-rendering="geometricPrecision" transform="matrix(2,0,0,2,-1084,-246)" stroke-linecap="butt">
      <circle fill="none" r="15" clip-path="url(#clipPath2)" cx="655" cy="315"/>
      <text x="651.6631" xml:space="preserve" y="319.7139" clip-path="url(#clipPath2)" font-family="sans-serif" stroke="none">3</text>
    </g>
    <g fill="rgb(255,204,0)" text-rendering="geometricPrecision" shape-rendering="geometricPrecision" transform="matrix(2,0,0,2,-1084,-246)" stroke="rgb(255,204,0)">
      <circle r="15" clip-path="url(#clipPath2)" cx="574" cy="257" stroke="none"/>
    </g>
    <g text-rendering="geometricPrecision" stroke-miterlimit="1.45" shape-rendering="geometricPrecision" transform="matrix(2,0,0,2,-1084,-246)" stroke-linecap="butt">
      <circle fill="none" r="15" clip-path="url(#clipPath2)" cx="574" cy="257"/>
      <text x="570.6631" xml:space="preserve" y="261.7139" clip-path="url(#clipPath2)" font-family="sans-serif" stroke="none">4</text>
    </g>
    <g fill="rgb(255,204,0)" text-rendering="geometricPrecision" shape-rendering="geometricPrecision" transform="matrix(2,0,0,2,-1084,-246)" stroke="rgb(255,204,0)">
      <circle r="15" clip-path="url(#clipPath2)" cx="565" cy="166" stroke="none"/>
    </g>
    <g text-rendering="geometricPrecision" stroke-miterlimit="1.45" shape-rendering="geometricPrecision" transform="matrix(2,0,0,2,-1084,-246)" stroke-linecap="butt">
      <circle fill="none" r="15" clip-path="url(#clipPath2)" cx="565" cy="166"/>
      <text x="561.6631" xml:space="preserve" y="170.7139" clip-path="url(#clipPath2)" font-family="sans-serif" stroke="none">0</text>
      <path fill="none" d="M692.4742 159.0052 L727.5258 219.9948" clip-path="url(#clipPath2)"/>
      <rect x="701.3262" y="180.1494" clip-path="url(#clipPath2)" fill="aqua" width="17.3477" height="18.7012" stroke="none"/>
      <rect stroke-linecap="square" x="701.3262" y="180.1494" clip-path="url(#clipPath2)" fill="none" width="17.3477" height="18.7012" stroke-miterlimit="1.6"/>
      <text x="703.3262" xml:space="preserve" y="194.2139" clip-path="url(#clipPath2)" font-family="sans-serif" stroke="none">10</text>
      <path fill="none" d="M657.6218 300.2309 L682.3782 160.7691" clip-path="url(#clipPath2)"/>
      <rect x="674.4529" y="166" clip-path="url(#clipPath2)" fill="aqua" width="10.6738" height="18.7012" stroke="none"/>
      <rect stroke-linecap="square" x="674.4529" y="166" clip-path="url(#clipPath2)" fill="none" width="10.6738" height="18.7012" stroke-miterlimit="1.6"/>
      <text x="676.4529" xml:space="preserve" y="180.0645" clip-path="url(#clipPath2)" font-family="sans-serif" stroke="none">5</text>
      <path fill="none" d="M665.4749 304.2633 L724.5251 243.7367" clip-path="url(#clipPath2)"/>
      <rect x="689.6631" y="264.6494" clip-path="url(#clipPath2)" fill="aqua" width="10.6738" height="18.7012" stroke="none"/>
      <rect stroke-linecap="square" x="689.6631" y="264.6494" clip-path="url(#clipPath2)" fill="none" width="10.6738" height="18.7012" stroke-miterlimit="1.6"/>
      <text x="691.6631" xml:space="preserve" y="278.7139" clip-path="url(#clipPath2)" font-family="sans-serif" stroke="none">2</text>
      <path fill="none" d="M642.8042 306.2672 L586.1958 265.7328" clip-path="url(#clipPath2)"/>
      <rect x="609.1631" y="276.6494" clip-path="url(#clipPath2)" fill="aqua" width="10.6738" height="18.7012" stroke="none"/>
      <rect stroke-linecap="square" x="609.1631" y="276.6494" clip-path="url(#clipPath2)" fill="none" width="10.6738" height="18.7012" stroke-miterlimit="1.6"/>
      <text x="611.1631" xml:space="preserve" y="290.7139" clip-path="url(#clipPath2)" font-family="sans-serif" stroke="none">9</text>
      <path fill="none" d="M588.8361 254.7884 L720.1639 235.2116" clip-path="url(#clipPath2)"/>
      <rect x="594" y="243.8725" clip-path="url(#clipPath2)" fill="aqua" width="10.6738" height="18.7012" stroke="none"/>
      <rect stroke-linecap="square" x="594" y="243.8725" clip-path="url(#clipPath2)" fill="none" width="10.6738" height="18.7012" stroke-miterlimit="1.6"/>
      <text x="596" xml:space="preserve" y="257.937" clip-path="url(#clipPath2)" font-family="sans-serif" stroke="none">4</text>
      <path fill="none" d="M579.7959 163.534 L670.2041 148.466" clip-path="url(#clipPath2)"/>
      <rect x="619.6631" y="146.6494" clip-path="url(#clipPath2)" fill="aqua" width="10.6738" height="18.7012" stroke="none"/>
      <rect stroke-linecap="square" x="619.6631" y="146.6494" clip-path="url(#clipPath2)" fill="none" width="10.6738" height="18.7012" stroke-miterlimit="1.6"/>
      <text x="621.6631" xml:space="preserve" y="160.7139" clip-path="url(#clipPath2)" font-family="sans-serif" stroke="none">1</text>
      <path fill="none" d="M566.4763 180.9272 L572.5237 242.0728" clip-path="url(#clipPath2)"/>
      <rect x="560.8262" y="202.1494" clip-path="url(#clipPath2)" fill="aqua" width="17.3477" height="18.7012" stroke="none"/>
      <rect stroke-linecap="square" x="560.8262" y="202.1494" clip-path="url(#clipPath2)" fill="none" width="17.3477" height="18.7012" stroke-miterlimit="1.6"/>
      <text x="562.8262" xml:space="preserve" y="216.2139" clip-path="url(#clipPath2)" font-family="sans-serif" stroke="none">16</text>
    </g>
  </g>
</svg>
