<?xml version="1.0" encoding="UTF-8"?><svg xmlns="http://www.w3.org/2000/svg" xmlns:xlink="http://www.w3.org/1999/xlink" fill-opacity="1" color-rendering="auto" color-interpolation="auto" text-rendering="auto" stroke="black" stroke-linecap="square" width="578" stroke-miterlimit="10" shape-rendering="auto" stroke-opacity="1" fill="black" stroke-dasharray="none" font-weight="normal" stroke-width="1" height="452" font-family="'Dialog'" font-style="normal" stroke-linejoin="miter" font-size="12px" stroke-dashoffset="0" image-rendering="auto">
  <!--Generated by ySVG 2.5-->
  <defs id="genericDefs"/>
  <g>
    <defs id="defs1">
      <clipPath clipPathUnits="userSpaceOnUse" id="clipPath1">
        <path d="M0 0 L578 0 L578 452 L0 452 L0 0 Z"/>
      </clipPath>
      <clipPath clipPathUnits="userSpaceOnUse" id="clipPath2">
        <path d="M325 145 L614 145 L614 371 L325 371 L325 145 Z"/>
      </clipPath>
    </defs>
    <g fill="white" text-rendering="geometricPrecision" shape-rendering="geometricPrecision" transform="scale(2,2) translate(-325,-145)" stroke="white">
      <rect x="325" width="289" height="226" y="145" clip-path="url(#clipPath2)" stroke="none"/>
    </g>
    <g fill="rgb(255,204,0)" text-rendering="geometricPrecision" shape-rendering="geometricPrecision" transform="matrix(2,0,0,2,-650,-290)" stroke="rgb(255,204,0)">
      <rect x="333" y="153" clip-path="url(#clipPath2)" width="106" rx="4" ry="4" height="30" stroke="none"/>
    </g>
    <g text-rendering="geometricPrecision" stroke-miterlimit="1.45" shape-rendering="geometricPrecision" transform="matrix(2,0,0,2,-650,-290)" stroke-linecap="butt">
      <rect x="333" y="153" clip-path="url(#clipPath2)" fill="none" width="106" rx="4" ry="4" height="30"/>
      <text x="353.9844" xml:space="preserve" y="172.7139" clip-path="url(#clipPath2)" font-family="sans-serif" stroke="none">Specifikáció</text>
    </g>
    <g fill="rgb(255,204,0)" text-rendering="geometricPrecision" shape-rendering="geometricPrecision" transform="matrix(2,0,0,2,-650,-290)" stroke="rgb(255,204,0)">
      <rect x="386" y="213" clip-path="url(#clipPath2)" width="106" rx="4" ry="4" height="30" stroke="none"/>
    </g>
    <g text-rendering="geometricPrecision" stroke-miterlimit="1.45" shape-rendering="geometricPrecision" transform="matrix(2,0,0,2,-650,-290)" stroke-linecap="butt">
      <rect x="386" y="213" clip-path="url(#clipPath2)" fill="none" width="106" rx="4" ry="4" height="30"/>
      <text x="414.3262" xml:space="preserve" y="232.7139" clip-path="url(#clipPath2)" font-family="sans-serif" stroke="none">Tervezés</text>
    </g>
    <g fill="rgb(255,204,0)" text-rendering="geometricPrecision" shape-rendering="geometricPrecision" transform="matrix(2,0,0,2,-650,-290)" stroke="rgb(255,204,0)">
      <rect x="449" y="273" clip-path="url(#clipPath2)" width="106" rx="4" ry="4" height="30" stroke="none"/>
    </g>
    <g text-rendering="geometricPrecision" stroke-miterlimit="1.45" shape-rendering="geometricPrecision" transform="matrix(2,0,0,2,-650,-290)" stroke-linecap="butt">
      <rect x="449" y="273" clip-path="url(#clipPath2)" fill="none" width="106" rx="4" ry="4" height="30"/>
      <text x="474.9912" xml:space="preserve" y="292.7139" clip-path="url(#clipPath2)" font-family="sans-serif" stroke="none">Fejlesztés</text>
    </g>
    <g fill="rgb(255,204,0)" text-rendering="geometricPrecision" shape-rendering="geometricPrecision" transform="matrix(2,0,0,2,-650,-290)" stroke="rgb(255,204,0)">
      <rect x="500" y="333" clip-path="url(#clipPath2)" width="106" rx="4" ry="4" height="30" stroke="none"/>
    </g>
    <g text-rendering="geometricPrecision" stroke-miterlimit="1.45" shape-rendering="geometricPrecision" transform="matrix(2,0,0,2,-650,-290)" stroke-linecap="butt">
      <rect x="500" y="333" clip-path="url(#clipPath2)" fill="none" width="106" rx="4" ry="4" height="30"/>
      <text x="527.3242" xml:space="preserve" y="352.7139" clip-path="url(#clipPath2)" font-family="sans-serif" stroke="none">Tesztelés</text>
      <path fill="none" d="M425.5208 183.0038 L427.5 184.75 L433.1875 193.0781 L437 203.0625 L437.344 205.1293" clip-path="url(#clipPath2)"/>
      <path d="M438.6575 213.0207 L441.6194 200.3626 L437.1798 204.1428 L431.7551 202.0045 Z" clip-path="url(#clipPath2)" stroke="none"/>
      <path fill="none" d="M486.1233 243.0123 L492.4375 250.7344 L497.5 261.1875 L498.5435 265.2539" clip-path="url(#clipPath2)"/>
      <path d="M500.5319 273.0028 L502.3924 260.1367 L498.2949 264.2853 L492.7062 262.6222 Z" clip-path="url(#clipPath2)" stroke="none"/>
      <path fill="none" d="M540.072 303.0244 L542.5 305.25 L547.9375 313.5469 L551.5 323.4375 L551.741 325.0779" clip-path="url(#clipPath2)"/>
      <path d="M552.9041 332.9929 L556.1064 320.3935 L551.5956 324.0885 L546.2126 321.8472 Z" clip-path="url(#clipPath2)" stroke="none"/>
    </g>
  </g>
</svg>
